<?xml version="1.0" encoding="UTF-8"?>
<svg width="48" height="48" version="1.1" xml:space="preserve" xmlns="http://www.w3.org/2000/svg" xmlns:cc="http://creativecommons.org/ns#" xmlns:dc="http://purl.org/dc/elements/1.1/" xmlns:rdf="http://www.w3.org/1999/02/22-rdf-syntax-ns#" xmlns:xlink="http://www.w3.org/1999/xlink"><defs><linearGradient id="linearGradient3688-166-749"><stop stop-color="#181818" offset="0"/><stop stop-color="#181818" stop-opacity="0" offset="1"/></linearGradient><radialGradient id="radialGradient3013-6" cx="4.993" cy="43.5" r="2.5" gradientTransform="matrix(2.0038 0 0 .9 29.988 4.85)" gradientUnits="userSpaceOnUse" xlink:href="#linearGradient3688-166-749"/><radialGradient id="radialGradient3015-1" cx="4.993" cy="43.5" r="2.5" gradientTransform="matrix(2.0038 0 0 .9 -18.012 -83.15)" gradientUnits="userSpaceOnUse" xlink:href="#linearGradient3688-166-749"/><linearGradient id="linearGradient856-2" x1="23.528" x2="23.528" y1="6.0832" y2="44.233" gradientUnits="userSpaceOnUse"><stop stop-color="#64baff" offset="0"/><stop stop-color="#3689e6" offset="1"/></linearGradient><linearGradient id="linearGradient3058-5" x1="39" x2="39" y1="6" y2="41.945" gradientTransform="translate(4e-6 1)" gradientUnits="userSpaceOnUse"><stop stop-color="#fff" offset="0"/><stop stop-color="#fff" stop-opacity=".23529" offset=".067816"/><stop stop-color="#fff" stop-opacity=".15686" offset=".94694"/><stop stop-color="#fff" stop-opacity=".39216" offset="1"/></linearGradient><linearGradient id="linearGradient1191" x1="25.058" x2="25.058" y1="47.028" y2="39.999" gradientTransform="matrix(1.1429 0 0 .64286 -3.4286 16.036)" gradientUnits="userSpaceOnUse"><stop stop-color="#181818" stop-opacity="0" offset="0"/><stop stop-color="#181818" offset=".5"/><stop stop-color="#181818" stop-opacity="0" offset="1"/></linearGradient></defs><metadata><rdf:RDF><cc:Work rdf:about=""><dc:format>image/svg+xml</dc:format><dc:type rdf:resource="http://purl.org/dc/dcmitype/StillImage"/></cc:Work></rdf:RDF></metadata><g><rect x="40" y="41.75" width="5" height="4.5" fill="url(#radialGradient3013-6)" opacity=".6"/><rect transform="scale(-1)" x="-8" y="-46.25" width="5" height="4.5" fill="url(#radialGradient3015-1)" opacity=".6"/><rect x="8" y="41.75" width="32" height="4.5" fill="url(#linearGradient1191)" opacity=".6"/><rect x="4.5" y="5.5" width="39" height="39" rx="4" ry="4" color="#000000" fill="url(#linearGradient856-2)" stroke="#002e99" stroke-opacity=".5"/></g><rect x="5.5" y="6.5" width="37" height="37" rx="3" ry="3" fill="none" opacity=".35" stroke="url(#linearGradient3058-5)" stroke-linecap="round" stroke-linejoin="round"/><g><path d="m20.5 14c-0.831 0-1.5 0.669-1.5 1.5v12c0 0.277-0.223 0.5-0.5 0.5s-0.5-0.223-0.5-0.5v-8c0-0.831-0.669-1.5-1.5-1.5s-1.5 0.669-1.5 1.5v13.5c0 3.324 2.676 6 6 6h7c3.324 0 6-2.676 6-6v-6.5c0-0.831-0.669-1.5-1.5-1.5s-1.5 0.669-1.5 1.5v1.2969 3.7031c0 0.277-0.223 0.5-0.5 0.5s-0.5-0.223-0.5-0.5v-15c0-0.831-0.669-1.5-1.5-1.5s-1.5 0.669-1.5 1.5v9c0 0.277-0.223 0.5-0.5 0.5s-0.5-0.223-0.5-0.5v-10c0-0.831-0.669-1.5-1.5-1.5s-1.5 0.669-1.5 1.5v10c0 0.277-0.223 0.5-0.5 0.5s-0.5-0.223-0.5-0.5v-10c0-0.831-0.669-1.5-1.5-1.5z" fill="#002e99" opacity=".3" stop-color="#000000" style="-inkscape-stroke:none;font-variation-settings:normal;paint-order:normal"/><path d="m20.449 13.002c-1.4893-0.016472-2.6495 1.4545-2.4492 2.898-0.07933 0.41351 0.15183 1.4673-0.10156 1.5219-1.3795-0.99403-3.5476-0.12946-3.8438 1.5508-0.1306 2.2681-0.01612 4.553-0.05469 6.8273 0.03674 2.6782-0.07211 5.3634 0.05131 8.0375 0.32779 3.3036 3.297 6.06 6.6128 6.1547 2.6906-0.0094 5.3862 0.05738 8.0742-0.03125 3.2852-0.28286 6.0805-3.1744 6.2419-6.4689 0.02281-2.4648 0.05485-4.9389-0.01531-7.4013-0.20758-1.6999-2.3665-2.6757-3.7813-1.7137-0.41489 0.17396-0.0714-1.0767-0.18359-1.475-0.03122-2.2859 0.06089-4.5797-0.04297-6.8609-0.24206-1.6745-2.3743-2.6137-3.7734-1.6641-0.48475 0.63158-0.5079-0.43498-0.90934-0.6494-1.0173-1.0577-2.932-0.93485-3.7743 0.27636-0.46435-0.64159-1.2611-1.023-2.0508-1.002z" fill="#002e99" opacity=".15" stop-color="#000000" style="-inkscape-stroke:none;font-variation-settings:normal;paint-order:normal"/><path d="m20.5 13c-0.831 0-1.5 0.669-1.5 1.5v12c0 0.277-0.223 0.5-0.5 0.5s-0.5-0.223-0.5-0.5v-8c0-0.831-0.669-1.5-1.5-1.5s-1.5 0.669-1.5 1.5v13.5c0 3.324 2.676 6 6 6h7c3.324 0 6-2.676 6-6v-6.5c0-0.831-0.669-1.5-1.5-1.5s-1.5 0.669-1.5 1.5v1.2969 3.7031c0 0.277-0.223 0.5-0.5 0.5s-0.5-0.223-0.5-0.5v-15c0-0.831-0.669-1.5-1.5-1.5s-1.5 0.669-1.5 1.5v9c0 0.277-0.223 0.5-0.5 0.5s-0.5-0.223-0.5-0.5v-10c0-0.831-0.669-1.5-1.5-1.5s-1.5 0.669-1.5 1.5v10c0 0.277-0.223 0.5-0.5 0.5s-0.5-0.223-0.5-0.5v-10c0-0.831-0.669-1.5-1.5-1.5z" fill="#fff" stop-color="#000000" style="-inkscape-stroke:none;font-variation-settings:normal;paint-order:normal"/><path d="m15 31v1c0 3.324 2.676 6 6 6h7c3.324 0 6-2.676 6-6v-1c0 3.324-2.676 6-6 6h-7c-3.324 0-6-2.676-6-6z" fill="#002e99" opacity=".07" stop-color="#000000" style="-inkscape-stroke:none;font-variation-settings:normal;paint-order:normal"/><path d="m33.965 32.662c-1.1284 1.8068-3.0725 3.1134-5.2266 3.2988-2.688 0.08863-5.3837 0.02185-8.0742 0.03125-2.296-0.06556-4.4252-1.4082-5.627-3.3242 0.3306 3.0069 2.865 5.332 5.9629 5.332h7c3.1003 0 5.6375-2.3275 5.9648-5.3379z" fill="#002e99" opacity=".07" stop-color="#000000" style="-inkscape-stroke:none;font-variation-settings:normal;paint-order:normal"/></g></svg>
